# xmcd CD database file
#
# Track frame offsets:
#	150
#	21282
#	37583
#	61175
#	73410
#	94222
#	120988
#	145930
#	168154
#	185002
#	206102
#	227839
#
# Disc length: 3237 seconds
#
# Revision: 1
# Processed by: cddbd v1.5.1PL2 Copyright (c) Steve Scherf et al.
# Submitted via: CDex 1.40Beta9
#
DISCID=a50ca30c
DTITLE=Robbie Smith - Workin 'Like A Dog
DYEAR=2004
DGENRE=Blues
TTITLE0=Peacock Alley
TTITLE1='Taint In The Mood
TTITLE2=Uptown Woman
TTITLE3=Black Magic
TTITLE4=Workin' Like A Dog
TTITLE5=Robbie's Rhumba
TTITLE6=Willow Weep For Me
TTITLE7=Jumpin' The Blues
TTITLE8=Bedrock
TTITLE9=The Crossroads Of My Heart
TTITLE10=Pass The Peace Pipe
TTITLE11=Can't Be Trusted
EXTD=YEAR: 2004 ID3G: 0
EXTT0=
EXTT1=
EXTT2=
EXTT3=
EXTT4=
EXTT5=
EXTT6=
EXTT7=
EXTT8=
EXTT9=
EXTT10=
EXTT11=
PLAYORDER=
